PathFileType	4	(X/Y/Z)	G:\Shared drives\HIT\Data\HapticPilot\Subject1\Edited\static1.trc
DataRate	CameraRate	NumFrames	NumMarkers	Units	OrigDataRate	OrigDataStartFrame	OrigNumFrames
50.00	50.00	       10	38	mm	50.00	57	       227
Frame#	Time	r_knee			r_shank(antsup)			r_ankle			r_calc			r_5meta			r_toe			L_knee			L_shank(ant_sup)			L_ankle			L_calc			L_5meta			L_toe			r_mknee			r_mankle			L_mknee			L_mankle			r_sh2			r_sh3			r_sh4			L_sh2			L_sh3			r_thigh1			r_thigh2			r_thigh3			r_thigh4			r_thigh5			L_thigh1			L_thigh2			L_thigh3			L_thigh4			r.ASIS			r.PSIS			L.ASIS			L.PSIS			C7			R_Shoulder			L_Shoulder			Sternum			
		X1	Y1	Z1	X2	Y2	Z2	X3	Y3	Z3	X4	Y4	Z4	X5	Y5	Z5	X6	Y6	Z6	X7	Y7	Z7	X8	Y8	Z8	X9	Y9	Z9	X10	Y10	Z10	X11	Y11	Z11	X12	Y12	Z12	X13	Y13	Z13	X14	Y14	Z14	X15	Y15	Z15	X16	Y16	Z16	X17	Y17	Z17	X18	Y18	Z18	X19	Y19	Z19	X20	Y20	Z20	X21	Y21	Z21	X22	Y22	Z22	X23	Y23	Z23	X24	Y24	Z24	X25	Y25	Z25	X26	Y26	Z26	X27	Y27	Z27	X28	Y28	Z28	X29	Y29	Z29	X30	Y30	Z30	X31	Y31	Z31	X32	Y32	Z32	X33	Y33	Z33	X34	Y34	Z34	X35	Y35	Z35	X36	Y36	Z36	X37	Y37	Z37	X38	Y38	Z38	

57	1.120	773.54980	409.21063	578.81323	787.82227	404.38876	491.85736	735.05750	409.01395	114.25561	646.45294	452.10464	71.21314	847.12708	382.28989	39.40205	886.07556	445.12759	73.61777	767.44446	732.43848	573.40509	792.28589	733.68640	456.01111	705.35370	732.18274	113.34535	629.73242	681.38702	73.40131	821.01569	777.85974	42.46559	868.09637	721.43903	71.02910	771.04138	535.18567	558.03418	746.98822	505.20871	120.77869	785.28125	610.14972	562.79303	736.77759	642.35461	120.66396	784.44733	401.23721	371.69363	712.86859	392.32968	491.62308	702.43634	385.77716	375.71597	704.66687	752.40057	476.04010	692.42627	753.77997	354.11304	842.05035	392.84390	898.77716	841.08081	396.10162	783.78662	795.42535	383.47119	750.64349	729.00458	381.49017	892.79480	734.20966	393.49094	775.81268	855.53046	752.44629	839.99286	857.03699	743.41144	701.88190	740.20667	771.51099	838.65509	744.85449	752.26849	704.32526	865.07227	447.06461	1095.13293	676.02020	539.54120	1126.60779	874.23065	705.26825	1096.32959	684.21588	622.22333	1125.42358	722.92932	589.82831	1608.74146	765.75177	424.57056	1582.82202	788.70410	766.01447	1574.40454	863.77740	582.30505	1535.36475	
58	1.140	773.47937	409.22894	578.80981	787.75342	404.45972	491.82211	735.04749	409.02631	114.23855	646.45258	452.10663	71.21619	847.13269	382.31052	39.39767	886.08240	445.12341	73.62076	767.39166	732.46655	573.36963	792.27814	733.70978	455.97253	705.30859	732.19788	113.32983	629.71167	681.38348	73.40870	820.96350	777.86511	42.44190	868.08331	721.44653	71.03696	770.93878	535.25250	558.00598	746.96179	505.23474	120.74552	785.12048	610.16956	562.73676	736.82983	642.38544	120.66881	784.43304	401.31146	371.67874	712.81500	392.37433	491.61490	702.44885	385.77408	375.71625	704.63306	752.43164	476.01706	692.37341	753.81903	354.09967	842.00879	392.97015	898.69061	840.91217	396.12506	783.81299	795.34546	383.50845	750.65167	729.00769	381.46729	892.84863	734.19232	393.53671	775.82166	855.52551	752.46149	839.95972	856.98767	743.39606	701.80548	740.23822	771.52740	838.60120	744.82117	752.39240	704.34790	865.04437	447.04974	1095.11023	676.04712	539.55255	1126.61499	874.19000	705.28644	1096.31763	684.19250	622.26276	1125.44373	722.94684	589.71826	1608.70044	765.66699	424.56439	1582.85181	788.64899	765.92145	1574.44336	863.67157	582.27881	1535.27271	
59	1.160	773.45752	409.23856	578.79559	787.73077	404.47195	491.82950	735.04858	409.02167	114.24567	646.46173	452.08377	71.26141	847.11938	382.31787	39.40049	886.10840	445.12018	73.63721	767.38763	732.45410	573.38373	792.27313	733.70721	455.97391	705.29028	732.16132	113.36283	629.69983	681.36237	73.42254	820.98944	777.88019	42.49542	868.06842	721.44128	71.03925	770.95636	535.25714	558.03265	746.95490	505.25906	120.78147	785.17358	610.15973	562.78815	736.80713	642.33441	120.66991	784.38446	401.28149	371.67639	712.77301	392.41071	491.58759	702.43512	385.82474	375.68811	704.62305	752.47437	476.03925	692.38770	753.76984	354.09818	841.99274	393.02853	898.68146	840.81201	396.18393	783.73956	795.34991	383.54465	750.61133	728.94928	381.55380	892.78516	734.17731	393.58688	775.76758	855.46680	752.49841	839.95203	856.97284	743.41962	701.83643	740.25354	771.60297	838.65985	744.73541	752.39545	704.32452	864.97351	447.08466	1095.10522	675.99750	539.57123	1126.68457	874.19391	705.30994	1096.33691	684.20074	622.24780	1125.51013	722.99792	589.67523	1608.75757	765.68005	424.46915	1582.87036	788.57574	765.84088	1574.50879	863.60901	582.19861	1535.19885	
60	1.180	773.48059	409.25748	578.80579	787.73065	404.47830	491.84311	735.06006	409.00110	114.26935	646.43933	452.02588	71.35024	847.13391	382.30472	39.40219	886.09418	445.08081	73.63370	767.41553	732.49707	573.43225	792.28748	733.70758	455.99805	705.28375	732.17120	113.38456	629.72296	681.29602	73.42987	820.99640	777.84277	42.54590	868.08630	721.39691	71.10101	770.95215	535.26050	558.01501	747.01062	505.24557	120.78879	785.13019	610.16602	562.75183	736.74982	642.32550	120.71270	784.37134	401.30777	371.69763	712.78998	392.41153	491.57721	702.43860	385.79105	375.69073	704.66254	752.46997	476.03625	692.40417	753.82971	354.13245	841.94629	393.04575	898.70795	840.78772	396.15689	783.77142	795.30615	383.51480	750.63531	728.93091	381.55765	892.82141	734.14819	393.54272	775.78998	855.52185	752.47253	839.95966	857.02557	743.41937	701.88440	740.29590	771.61987	838.66412	744.79584	752.38660	704.35162	864.92834	447.11108	1095.09607	675.93549	539.61493	1126.73010	874.22668	705.27338	1096.33936	684.11932	622.34711	1125.66040	723.02795	589.60333	1608.81445	765.69751	424.36441	1582.86035	788.47583	765.72699	1574.53357	863.55048	582.16742	1535.08667	
61	1.200	773.50037	409.30447	578.81854	787.73761	404.50781	491.81122	735.05225	409.01532	114.24281	646.44794	452.01840	71.33563	847.11560	382.31335	39.40566	886.08075	445.09854	73.64256	767.41821	732.47607	573.39880	792.26569	733.75018	455.98019	705.28955	732.15759	113.38541	629.70215	681.34625	73.44699	821.00110	777.81805	42.50935	868.09973	721.38098	71.08826	770.94714	535.28540	557.99121	746.98016	505.20660	120.73491	785.21106	610.15338	562.80652	736.82965	642.28760	120.77781	784.40289	401.32886	371.70145	712.78394	392.40875	491.63074	702.43060	385.78879	375.68982	704.65924	752.55365	476.06265	692.37061	753.84406	354.09445	841.96924	393.03055	898.73279	841.05566	396.18542	783.82458	795.23682	383.55905	750.66748	728.83936	381.58444	892.82446	734.10706	393.52557	775.83118	855.52075	752.51764	839.97772	857.01251	743.48016	701.84119	740.22729	771.59442	838.58392	744.84607	752.32007	704.26996	864.92590	447.07660	1095.11316	675.89233	539.64844	1126.73901	874.19965	705.26483	1096.35767	684.12500	622.33563	1125.55713	723.08490	589.52136	1608.81787	765.76648	424.27652	1582.79895	788.43341	765.64398	1574.53906	863.52655	582.18866	1534.98193	
62	1.220	773.49023	409.31601	578.82214	787.74786	404.48932	491.87222	735.05756	409.03500	114.24315	646.45190	452.05685	71.23419	847.10291	382.31180	39.38055	886.06464	445.09070	73.61633	767.43048	732.50806	573.37738	792.32074	733.73639	455.97684	705.28705	732.16754	113.33815	629.68982	681.35498	73.41543	821.01984	777.85944	42.48446	868.06030	721.43311	71.03882	771.07690	535.30481	558.06213	746.98315	505.21991	120.73661	785.17053	610.18817	562.73578	736.72772	642.28308	120.71475	784.39404	401.35187	371.69922	712.80975	392.42432	491.60660	702.42749	385.81995	375.69077	704.70905	752.52747	476.01651	692.46472	753.76532	354.09036	841.86194	392.96750	898.75934	840.86334	396.17429	783.84515	795.21240	383.59363	750.65228	728.80170	381.63000	892.81915	734.06726	393.64404	775.83496	855.50952	752.54413	839.97357	857.08380	743.44550	701.85858	740.26288	771.64526	838.63788	744.78949	752.39185	704.28754	864.91034	447.06992	1095.07947	675.86792	539.74249	1126.70105	874.18915	705.26971	1096.34814	684.11047	622.42157	1125.52625	723.17780	589.44336	1608.81213	765.90509	424.17120	1582.72644	788.42145	765.58209	1574.55835	863.50201	582.15021	1534.88220	
63	1.240	773.52850	409.33548	578.79956	787.77576	404.52109	491.79333	735.06049	408.99658	114.25358	646.43134	452.11731	71.19987	847.11664	382.32129	39.38228	886.07611	445.09665	73.60920	767.53583	732.48889	573.37463	792.39746	733.73755	455.96216	705.30505	732.18359	113.32172	629.68298	681.35400	73.37613	821.02228	777.83691	42.48291	868.07715	721.41296	71.03001	771.06561	535.28070	557.99994	747.00201	505.23364	120.73221	785.27112	610.17029	562.72925	736.69635	642.25885	120.67520	784.41077	401.31552	371.65634	712.84070	392.45859	491.58859	702.46088	385.82416	375.70255	704.72614	752.53247	476.02405	692.36383	753.82690	354.04401	841.83649	393.01144	898.76520	840.99164	396.18930	783.85162	795.19800	383.60309	750.65240	728.74780	381.69476	892.80377	734.05548	393.60538	775.84113	855.50958	752.51605	839.97382	857.01801	743.46960	701.91101	740.22528	771.59192	838.58624	744.82874	752.29932	704.26996	864.81427	447.10291	1095.05237	675.88416	539.65778	1126.60376	874.15894	705.28082	1096.37561	684.10602	622.40460	1125.47119	723.22833	589.41541	1608.85559	766.01318	424.12729	1582.73193	788.40741	765.50287	1574.53613	863.49292	582.10321	1534.78381	
64	1.260	773.53320	409.36218	578.77759	787.80542	404.51309	491.79916	735.03448	408.98792	114.26656	646.44354	452.10907	71.20470	847.08911	382.30676	39.38087	886.09015	445.10760	73.60497	767.55536	732.50598	573.35925	792.40015	733.71417	455.92780	705.33453	732.16644	113.32125	629.69965	681.38959	73.34014	820.99921	777.87219	42.47878	868.10809	721.40991	71.04462	771.07300	535.32831	557.97162	746.97333	505.21747	120.73547	785.34882	610.20886	562.76874	736.72479	642.28259	120.65995	784.44037	401.34872	371.63248	712.88422	392.43027	491.61868	702.45929	385.80518	375.70941	704.79755	752.50952	476.05548	692.47321	753.75299	354.11102	841.83148	393.00415	898.74249	840.75159	396.13541	783.77899	795.21912	383.57370	750.65662	728.75311	381.63623	892.79395	734.08423	393.66278	775.78607	855.49811	752.51306	839.96985	857.05597	743.47540	701.83630	740.18964	771.56378	838.49176	744.85022	752.30035	704.18848	864.79791	447.09674	1095.06567	675.83319	539.75110	1126.63000	874.12531	705.27106	1096.36011	684.05603	622.39301	1125.44080	723.27185	589.33722	1608.85632	766.11853	423.99515	1582.66101	788.45282	765.45734	1574.54651	863.46387	582.06555	1534.70764	
65	1.280	773.58130	409.31821	578.78369	787.82635	404.57492	491.79059	735.05688	409.01059	114.23694	646.44574	452.07309	71.27664	847.12555	382.30588	39.39565	886.07587	445.09375	73.62575	767.59998	732.48956	573.36646	792.46631	733.70166	455.93768	705.34595	732.14832	113.34010	629.71722	681.33313	73.40968	821.01697	777.84277	42.49548	868.07867	721.39410	71.01881	771.09857	535.31897	557.98431	747.00208	505.23975	120.73633	785.35736	610.18799	562.74316	736.75024	642.24976	120.72147	784.45398	401.36292	371.65106	712.93634	392.44208	491.60910	702.48828	385.81296	375.70370	704.80212	752.47620	476.01614	692.48090	753.78033	354.09671	841.81781	392.97125	898.73132	840.69092	396.13660	783.80188	795.19836	383.56357	750.63702	728.74133	381.72305	892.76923	734.07312	393.56158	775.80139	855.47711	752.51636	839.99567	857.09625	743.45380	701.90851	740.21814	771.59827	838.55768	744.91351	752.32117	704.21924	864.80688	447.04745	1095.06409	675.81934	539.67822	1126.61853	874.10144	705.32056	1096.38367	683.99933	622.39410	1125.48352	723.32288	589.32935	1608.86670	766.15021	423.96643	1582.62573	788.44440	765.38171	1574.57471	863.45233	582.01007	1534.62451	
66	1.300	773.57996	409.34500	578.81793	787.82825	404.51050	491.84784	735.04889	409.03574	114.24091	646.43835	452.05594	71.34261	847.11090	382.31567	39.38600	886.09479	445.08829	73.67709	767.60840	732.46600	573.39075	792.45764	733.68634	455.93240	705.34412	732.18646	113.36456	629.70837	681.35535	73.45082	820.98596	777.83612	42.54392	868.09546	721.38617	71.08357	771.10742	535.31268	558.01343	747.00122	505.22879	120.73667	785.35083	610.19348	562.72491	736.75885	642.28363	120.73061	784.45874	401.33466	371.67786	712.90979	392.44495	491.56848	702.49176	385.83298	375.71533	704.84259	752.48895	476.02454	692.41437	753.82178	354.09933	841.79028	393.03232	898.70807	840.65106	396.11255	783.82843	795.25757	383.62714	750.62952	728.78241	381.62024	892.80817	734.09570	393.61368	775.76514	855.47095	752.51709	840.00671	857.06683	743.50800	701.88940	740.21069	771.58563	838.57935	744.88831	752.30273	704.24078	864.81427	447.04532	1095.07385	675.77063	539.68976	1126.65857	873.99481	705.30322	1096.36316	683.99225	622.36853	1125.48608	723.40576	589.21545	1608.91736	766.22522	423.84451	1582.59949	788.47339	765.29437	1574.64673	863.42139	581.93817	1534.52283	
